<svg width="24" height="24" viewBox="0 0 24 24" fill="none" xmlns="http://www.w3.org/2000/svg">
<path d="M20.379 2C19.6592 2 18.9813 2.31738 18.5198 2.8709L13.5355 8.85167C12.0253 8.28141 10.2691 8.56077 9.03512 9.67434C8.08869 10.5287 5.20939 13.1281 2.51162 13.7146C2.19487 13.7838 1.97716 14.0758 2.00192 14.3995C2.22663 17.3512 4.55112 19.7252 8.91007 21.4543C8.98689 21.4848 9.06813 21.5 9.15 21.5C9.1665 21.5 9.18301 21.4994 9.19952 21.4981C11.1336 21.3508 14.4928 16.7945 15.624 15.0514C16.3894 13.8724 16.4826 12.449 15.9927 11.2279L21.9291 6.28025C22.4826 5.81877 22.8 5.14082 22.8 4.42103C22.8 3.08607 21.714 2 20.379 2V2ZM14.5335 14.3443C12.7041 17.1633 10.205 19.8934 9.22177 20.1784C8.5355 19.9 7.92534 19.602 7.35716 19.2934C8.43212 17.8653 10.0884 15 10.0884 15C10.0884 15 6.72709 17.2374 5.45351 18.0252C5.21389 17.8249 4.99504 17.6197 4.79524 17.4099C5.60883 16.3994 7.20003 14.35 7.20003 14.35C7.20003 14.35 4.90202 15.4629 3.80332 16.0297C3.6079 15.643 3.4516 15.2472 3.37047 14.8344C5.27096 14.265 7.41708 12.8869 9.90601 10.6392C10.9724 9.67688 12.5968 9.58359 13.7685 10.4202C15.0375 11.3266 15.3733 13.05 14.5335 14.3443ZM21.0963 5.28113L15.3054 10.1076C15.1226 9.88865 14.9173 9.68658 14.6859 9.50305L19.5189 3.70374C19.7322 3.4473 20.0458 3.30003 20.379 3.30003C20.9973 3.30003 21.5 3.80277 21.5 4.42103C21.5 4.75425 21.3528 5.06783 21.0963 5.28113V5.28113Z" fill="white"/>
</svg>
